<svg xmlns="http://www.w3.org/2000/svg" xmlns:xlink="http://www.w3.org/1999/xlink" xml:space="preserve" viewBox="0 0 488 90"><path d="M118 9.9h357v50H118z" style="fill:none"/><text style="font-family:&quot;GillSans&quot;;font-size:72px;letter-spacing:7" transform="translate(118 58.993)">Pandiweb</text><path d="m143.919 77.168-1.147-2.772h-4.206l-1.052 2.772h-.764l3.537-8.794h.764l3.537 8.794zm-5.066-3.346h3.728L141.05 70l-.286-.956-.383.86zm17.302-.956h3.632v4.302h-.574v-1.53c-.286.574-.573.956-1.147 1.243-.478.287-1.147.383-1.911.383-.765 0-1.53-.192-2.103-.574a4 4 0 0 1-1.434-1.625 6.3 6.3 0 0 1-.478-2.39c0-.956.19-1.72.478-2.39a3.38 3.38 0 0 1 1.434-1.625c.573-.382 1.338-.573 2.103-.573.86 0 1.625.191 2.198.573.574.383.956.86 1.243 1.626l-.574.286c-.19-.573-.573-1.051-1.051-1.434-.478-.286-1.052-.478-1.816-.478-.67 0-1.243.192-1.721.478-.478.287-.86.765-1.147 1.339-.287.573-.383 1.242-.383 2.103q0 1.863.86 2.867c.574.67 1.435 1.052 2.39 1.052.67 0 1.148-.096 1.626-.382s.764-.574.955-1.052c.192-.382.287-.86.287-1.338v-.478h-2.963v-.383zm13.287 3.728h5.544v.574h-6.214v-8.794h6.023v.573h-5.353v3.441h4.301v.67h-4.206v3.536zm21.03-8.22v8.794h-.86l-4.685-6.882-.669-1.148v8.126h-.67v-8.795h.861l4.684 6.883.67 1.147v-8.125zm16.44 6.595c-.286.765-.668 1.339-1.337 1.721-.67.382-1.339.574-2.199.574-.765 0-1.53-.192-2.103-.574a4 4 0 0 1-1.434-1.625c-.287-.574-.478-1.338-.478-2.294s.191-1.72.478-2.39a3.38 3.38 0 0 1 1.434-1.625c.574-.382 1.338-.573 2.103-.573 1.72 0 2.868.764 3.441 2.198l-.669.287c-.191-.67-.573-1.052-.956-1.434a3.3 3.3 0 0 0-1.72-.478c-.67 0-1.243.191-1.72.478-.479.287-.861.765-1.148 1.338s-.382 1.243-.382 2.103c0 .765.095 1.53.382 2.103s.67 1.052 1.147 1.339a3.3 3.3 0 0 0 1.72.477c.67 0 1.339-.19 1.817-.477.478-.383.86-.86 1.051-1.53zm9.369 1.625h5.544v.574h-6.213v-8.794h6.022v.573h-5.353v3.441h4.206v.67h-4.206zm27.817-8.22c1.433 0 2.485.382 3.25 1.147.764.765 1.147 1.816 1.147 3.25s-.383 2.58-1.147 3.346c-.765.764-1.817 1.147-3.25 1.147h-2.773v-8.795h2.773zm.095 8.22c1.147 0 2.103-.382 2.677-1.051.669-.67.956-1.625.956-2.868s-.287-2.103-.956-2.772c-.67-.669-1.53-.956-2.677-.956h-2.198v7.647zm13.956 0h5.545v.574h-6.214v-8.794h6.022v.573h-5.353v3.441h4.206v.67h-4.206zm29.442-5.64-1.816 6.214h-.86l-2.773-8.794h.765l2.485 8.316 2.295-8.316h.764l2.295 8.316 2.485-8.316h.669l-2.772 8.794h-.765l-1.816-6.213-.478-1.912zm15.581 5.64h5.544v.574h-6.213v-8.794h6.022v.573h-5.353v3.441h4.206v.67h-4.206zm14.148.574v-8.794h3.154c.956 0 1.72.19 2.199.573s.669.956.669 1.72c0 .479-.096.957-.383 1.34-.286.381-.669.573-1.147.668.574.096 1.052.287 1.339.67.382.382.478.86.478 1.433q0 1.148-.86 1.72-.861.574-2.295.574h-3.154zm.669-4.78h2.485c1.434 0 2.103-.573 2.103-1.72s-.765-1.72-2.103-1.72h-2.485zm0 4.206h2.58c.765 0 1.339-.19 1.721-.477s.574-.765.574-1.339c0-.573-.191-1.051-.574-1.338s-.956-.478-1.72-.478h-2.581zm28.199-8.22c1.434 0 2.485.382 3.25 1.147s1.147 1.816 1.147 3.25-.382 2.58-1.147 3.346c-.765.764-1.816 1.147-3.25 1.147h-2.772v-8.795h2.772zm0 8.22c1.147 0 2.103-.382 2.676-1.051.67-.67.956-1.625.956-2.868s-.287-2.103-.956-2.772-1.53-.956-2.676-.956h-2.199v7.647zm13.956 0h5.544v.574h-6.213v-8.794h6.022v.573h-5.353v3.441h4.206v.67h-4.206zm16.92-8.411c1.624 0 2.772.669 3.345 1.911l-.573.478c-.192-.669-.574-1.051-1.052-1.338s-1.051-.382-1.72-.382c-.479 0-.956.095-1.339.286-.382.192-.669.383-.86.67a1.6 1.6 0 0 0-.287.955c0 .383.096.574.287.86q.287.288.86.574c.383.191.956.287 1.72.383 1.148.19 2.008.478 2.486.86s.765.86.765 1.53c0 .477-.096.86-.382 1.242a2.6 2.6 0 0 1-1.148.86q-.717.287-1.72.287c-.956 0-1.72-.191-2.39-.573-.67-.383-1.051-.86-1.338-1.53l.573-.478c.192.67.574 1.147 1.052 1.434.573.382 1.242.478 2.007.478s1.434-.191 1.912-.478.765-.765.765-1.338q0-.717-.574-1.147c-.382-.287-1.051-.478-2.103-.67-.86-.19-1.53-.286-2.007-.477-.478-.192-.86-.478-1.052-.765q-.286-.431-.286-1.147c0-.478.095-.86.382-1.243.287-.382.67-.669 1.147-.956.382-.095.956-.286 1.53-.286m12.904.19v8.795h-.669v-8.794zm12.905 4.493h3.632v4.302h-.573v-1.53c-.287.574-.574.956-1.147 1.243-.478.287-1.147.383-1.912.383s-1.53-.192-2.103-.574-1.052-.86-1.338-1.625a6.3 6.3 0 0 1-.478-2.39c0-.956.19-1.72.478-2.39.382-.669.764-1.242 1.433-1.625.574-.382 1.339-.573 2.103-.573.86 0 1.625.191 2.199.573.574.383.956.86 1.243 1.626l-.574.286c-.191-.573-.573-1.051-1.051-1.434-.478-.286-1.147-.478-1.817-.478s-1.242.192-1.72.478c-.478.287-.86.765-1.147 1.339-.287.573-.383 1.242-.383 2.103q0 1.863.86 2.867c.574.67 1.434 1.052 2.39 1.052.67 0 1.147-.096 1.625-.382s.765-.574.956-1.052c.192-.382.287-.86.287-1.338v-.478h-2.963zm19.5-4.492v8.794h-.86l-4.684-6.882-.67-1.148v8.126h-.573v-8.795h.86l4.685 6.883.669 1.147v-8.125z"/><image xlink:href="logo.png" width="533" height="533" style="overflow:visible" transform="matrix(.1707 0 0 .167 15 .89)"/></svg>